<svg width="327" height="327" viewBox="0 0 327 327" fill="none" xmlns="http://www.w3.org/2000/svg">
<path d="M165.604 0.938721C254.511 2.06502 326.237 74.4873 326.237 163.662L326.224 165.766C325.097 254.674 252.675 326.4 163.5 326.4L161.397 326.386C101.817 325.631 49.9563 292.858 22.2228 244.484L20.8488 243.816L21.3087 242.868C8.5424 219.999 1.13078 193.733 0.776489 165.766L0.762817 163.662C0.762817 73.7851 73.6228 0.925049 163.5 0.925049L165.604 0.938721ZM163.5 10.925C79.1457 10.925 10.7628 79.3079 10.7628 163.662C10.7628 188.118 16.5113 211.231 26.7296 231.725L73.0548 136.502L74.423 133.69H136.109L163.131 86.885L164.574 84.385H291.778L287.893 91.7249L261.79 141.03L260.382 143.69H141.882L124.791 173.291H216.726L212.396 180.791L183.723 230.454L182.279 232.954H97.84L68.7003 283.423C94.7465 304.069 127.683 316.4 163.5 316.4C247.854 316.4 316.237 248.017 316.237 163.662C316.237 79.308 247.855 10.9251 163.5 10.925ZM32.63 242.454C40.3613 255.268 49.9211 266.854 60.9484 276.851L90.6232 225.454L92.0665 222.954H176.506L199.405 183.291H107.471L111.801 175.791L130.335 143.69H80.6788L32.63 242.454ZM147.655 133.69H254.36L275.169 94.385H170.348L147.655 133.69Z" fill="black" fill-opacity="0.08"/>
</svg>
