<svg width="27" height="27" viewBox="0 0 27 27" fill="none" xmlns="http://www.w3.org/2000/svg">
<path fill-rule="evenodd" clip-rule="evenodd" d="M10.2432 7.38225C11.665 6.11437 13.5317 5.34375 15.5754 5.34375C20.0266 5.34375 23.6411 8.99888 23.6411 13.5C23.6411 18.0011 20.0266 21.6562 15.5754 21.6562C13.5317 21.6562 11.665 20.8856 10.2432 19.6178C9.89829 19.3095 9.36984 19.3421 9.06502 19.692C8.76019 20.0408 8.79356 20.574 9.13844 20.8822C10.855 22.4145 13.109 23.3438 15.5754 23.3438C20.9477 23.3438 25.3099 18.9326 25.3099 13.5C25.3099 8.06738 20.9477 3.65625 15.5754 3.65625C13.109 3.65625 10.855 4.5855 9.13844 6.11775C8.79356 6.426 8.76019 6.95925 9.06502 7.308C9.36984 7.65787 9.89829 7.6905 10.2432 7.38225Z" fill="black"/>
<path fill-rule="evenodd" clip-rule="evenodd" d="M14.2959 8.54999V13.05C14.2959 13.2739 14.3838 13.4887 14.5407 13.6462L18.1007 17.2462C18.4255 17.5759 18.9551 17.5759 19.2799 17.2462C19.6059 16.9177 19.6059 16.3822 19.2799 16.0537L15.9647 12.7001V8.54999C15.9647 8.08424 15.5909 7.70624 15.1303 7.70624C14.6697 7.70624 14.2959 8.08424 14.2959 8.54999Z" fill="black"/>
<path fill-rule="evenodd" clip-rule="evenodd" d="M2.22501 10.4062H8.90007C9.36065 10.4062 9.73446 10.0282 9.73446 9.5625C9.73446 9.09675 9.36065 8.71875 8.90007 8.71875H2.22501C1.76443 8.71875 1.39062 9.09675 1.39062 9.5625C1.39062 10.0282 1.76443 10.4062 2.22501 10.4062Z" fill="black"/>
<path fill-rule="evenodd" clip-rule="evenodd" d="M3.33731 14.3438H10.0124C10.473 14.3438 10.8468 13.9657 10.8468 13.5C10.8468 13.0342 10.473 12.6562 10.0124 12.6562H3.33731C2.87673 12.6562 2.50293 13.0342 2.50293 13.5C2.50293 13.9657 2.87673 14.3438 3.33731 14.3438Z" fill="black"/>
<path fill-rule="evenodd" clip-rule="evenodd" d="M4.44962 18.2812H11.1247C11.5853 18.2812 11.9591 17.9032 11.9591 17.4375C11.9591 16.9717 11.5853 16.5938 11.1247 16.5938H4.44962C3.98904 16.5938 3.61523 16.9717 3.61523 17.4375C3.61523 17.9032 3.98904 18.2812 4.44962 18.2812Z" fill="black"/>
</svg>
