<svg width="25" height="25" viewBox="0 0 25 25" fill="none" xmlns="http://www.w3.org/2000/svg">
<path d="M13.0213 24.7798H11.4834C10.2395 24.7798 9.2275 23.7565 9.2275 22.4987V21.9725C8.69869 21.8017 8.18491 21.586 7.69132 21.3277L7.3226 21.7006C6.42957 22.6047 4.99906 22.5782 4.13196 21.7002L3.045 20.6011C2.17637 19.7237 2.15139 18.2776 3.04528 17.3747L3.41372 17.0021C3.15828 16.503 2.94506 15.9835 2.77607 15.4487H2.25582C1.01202 15.4487 0 14.4253 0 13.1675V11.6123C0 10.3545 1.01202 9.33114 2.25587 9.33114H2.77611C2.94511 8.79634 3.15833 8.27684 3.41376 7.77771L3.04504 7.4049C2.15168 6.50247 2.17632 5.05624 3.04533 4.17844L4.13239 3.07923C5.0015 2.19916 6.43167 2.17719 7.32298 3.07952L7.69137 3.45204C8.18495 3.19379 8.69874 2.97812 9.22755 2.80723V2.28114C9.22755 1.02333 10.2395 0 11.4834 0H13.0213C14.2652 0 15.2772 1.02333 15.2772 2.28114V2.80728C15.806 2.97813 16.3197 3.19379 16.8133 3.45209L17.1821 3.07923C18.0751 2.17506 19.5056 2.20158 20.3727 3.07957L21.4597 4.17869C22.3283 5.05609 22.3533 6.50218 21.4594 7.40514L21.0909 7.77771C21.3464 8.27684 21.5596 8.7963 21.7286 9.33114H22.2488C23.4927 9.33114 24.5047 10.3545 24.5047 11.6123V13.1675C24.5047 14.4253 23.4927 15.4487 22.2488 15.4487H21.7286C21.5596 15.9835 21.3464 16.503 21.0909 17.0021L21.4597 17.3749C22.353 18.2774 22.3284 19.7236 21.4594 20.6014L20.3723 21.7006C19.5032 22.5807 18.073 22.6027 17.1817 21.7003L16.8133 21.3278C16.3197 21.5861 15.806 21.8017 15.2772 21.9726V22.4987C15.2772 23.7565 14.2652 24.7798 13.0213 24.7798ZM7.93134 19.803C8.61704 20.2131 9.35505 20.5229 10.1248 20.7238C10.4419 20.8065 10.6634 21.0956 10.6634 21.4267V22.4987C10.6634 22.9559 11.0313 23.3279 11.4834 23.3279H13.0213C13.4735 23.3279 13.8414 22.9559 13.8414 22.4987V21.4267C13.8414 21.0956 14.0629 20.8065 14.3799 20.7238C15.1497 20.5229 15.8877 20.2131 16.5734 19.803C16.8556 19.6343 17.2147 19.6802 17.4465 19.9146L18.1974 20.6739C18.5211 21.0017 19.041 20.9941 19.3568 20.6742L20.4445 19.5743C20.7595 19.2562 20.77 18.7304 20.4448 18.4019L19.6936 17.6423C19.4619 17.408 19.4165 17.0447 19.5833 16.7594C19.9888 16.0661 20.2951 15.3198 20.4938 14.5413C20.5756 14.2207 20.8615 13.9968 21.1889 13.9968H22.2489C22.701 13.9968 23.0689 13.6248 23.0689 13.1676V11.6123C23.0689 11.1551 22.701 10.7831 22.2489 10.7831H21.1889C20.8615 10.7831 20.5756 10.5591 20.4938 10.2386C20.2951 9.46012 19.9888 8.71383 19.5833 8.02047C19.4165 7.73522 19.4619 7.37194 19.6936 7.1376L20.4445 6.37828C20.7691 6.05043 20.7606 5.52483 20.4448 5.20584L19.3571 4.10599C19.0419 3.78676 18.5219 3.77742 18.1977 4.1057L17.4466 4.86531C17.2148 5.0997 16.8555 5.14558 16.5735 4.97687C15.8878 4.56679 15.1497 4.25699 14.38 4.05609C14.0629 3.97338 13.8414 3.68425 13.8414 3.35316V2.28114C13.8414 1.82393 13.4735 1.45194 13.0214 1.45194H11.4835C11.0313 1.45194 10.6634 1.82393 10.6634 2.28114V3.35306C10.6634 3.68416 10.4419 3.97329 10.1249 4.056C9.3551 4.2569 8.61709 4.56669 7.93139 4.97677C7.6492 5.14544 7.29001 5.09956 7.05826 4.86521L6.30742 4.1059C5.98369 3.77814 5.46378 3.78574 5.14805 4.10556L4.06031 5.20545C3.7453 5.52362 3.73477 6.04937 4.06003 6.37789L4.8112 7.1375C5.04294 7.37184 5.08832 7.73512 4.92152 8.02038C4.516 8.71373 4.20969 9.46003 4.01102 10.2385C3.92918 10.5591 3.64326 10.783 3.31589 10.783H2.25587C1.80373 10.7831 1.43582 11.1551 1.43582 11.6123V13.1675C1.43582 13.6247 1.80373 13.9967 2.25587 13.9967H3.31584C3.64326 13.9967 3.92913 14.2207 4.01097 14.5412C4.20964 15.3197 4.516 16.066 4.92147 16.7594C5.08827 17.0446 5.0429 17.4079 4.81115 17.6422L4.06027 18.4016C3.73568 18.7294 3.74415 19.255 4.05998 19.574L5.14761 20.6739C5.46287 20.9931 5.98283 21.0024 6.30704 20.6741L7.05817 19.9145C7.22894 19.7419 7.58421 19.5954 7.93134 19.803Z" fill="black"/>
<path d="M12.2526 17.7813C9.31264 17.7813 6.9209 15.3626 6.9209 12.3897C6.9209 9.41681 9.31264 6.99817 12.2526 6.99817C15.1925 6.99817 17.5843 9.41681 17.5843 12.3897C17.5843 15.3626 15.1925 17.7813 12.2526 17.7813ZM12.2526 8.45011C10.1044 8.45011 8.35672 10.2174 8.35672 12.3897C8.35672 14.562 10.1044 16.3293 12.2526 16.3293C14.4008 16.3293 16.1484 14.562 16.1484 12.3897C16.1484 10.2174 14.4008 8.45011 12.2526 8.45011Z" fill="black"/>
</svg>
