<svg width="24" height="24" viewBox="0 0 24 24" fill="none" xmlns="http://www.w3.org/2000/svg">
<g clip-path="url(#clip0_2024_1166)">
<path d="M7.42842 6.75357H15.6228C16.74 6.75357 17.6488 5.84467 17.6488 4.72749C17.6488 3.61031 16.74 2.70142 15.6228 2.70142H7.42842C6.31124 2.70142 5.40234 3.61031 5.40234 4.72749C5.40234 5.84467 6.31124 6.75357 7.42842 6.75357ZM7.42842 4.05213H15.6228C15.9952 4.05213 16.2981 4.3551 16.2981 4.72749C16.2981 5.09989 15.9952 5.40285 15.6228 5.40285H7.42842C7.05603 5.40285 6.75306 5.09989 6.75306 4.72749C6.75306 4.3551 7.05603 4.05213 7.42842 4.05213Z" fill="black"/>
<path d="M7.42842 12.1565H15.6228C16.74 12.1565 17.6488 11.2476 17.6488 10.1304C17.6488 9.01321 16.74 8.10431 15.6228 8.10431H7.42842C6.31124 8.10431 5.40234 9.01321 5.40234 10.1304C5.40234 11.2476 6.31124 12.1565 7.42842 12.1565ZM7.42842 9.45503H15.6228C15.9952 9.45503 16.2981 9.75799 16.2981 10.1304C16.2981 10.5028 15.9952 10.8057 15.6228 10.8057H7.42842C7.05603 10.8057 6.75306 10.5028 6.75306 10.1304C6.75306 9.75799 7.05603 9.45503 7.42842 9.45503Z" fill="black"/>
<path d="M7.42842 17.5594H15.6228C16.74 17.5594 17.6488 16.6505 17.6488 15.5333C17.6488 14.4161 16.74 13.5072 15.6228 13.5072H7.42842C6.31124 13.5072 5.40234 14.4161 5.40234 15.5333C5.40234 16.6505 6.31124 17.5594 7.42842 17.5594ZM7.42842 14.8579H15.6228C15.9952 14.8579 16.2981 15.1609 16.2981 15.5333C16.2981 15.9057 15.9952 16.2086 15.6228 16.2086H7.42842C7.05603 16.2086 6.75306 15.9057 6.75306 15.5333C6.75306 15.1609 7.05603 14.8579 7.42842 14.8579Z" fill="black"/>
<path d="M20.3505 15.5333V4.72751C20.3505 2.12076 18.2298 0 15.623 0H7.42868C4.82193 0 2.70117 2.12076 2.70117 4.72751V15.5333C2.70117 16.8366 3.23137 18.0185 4.08741 18.8745C4.08584 18.8761 8.26199 23.0522 8.26199 23.0522H14.7897L18.9659 18.8761C19.8203 18.0185 20.3505 16.8366 20.3505 15.5333ZM4.05189 15.5333V4.72751C4.05189 2.86555 5.56672 1.35072 7.42868 1.35072H15.623C17.485 1.35072 18.9998 2.86555 18.9998 4.72751V15.5333C18.9998 17.3952 17.485 18.91 15.623 18.91H7.42868C5.56672 18.91 4.05189 17.3952 4.05189 15.5333ZM14.2303 21.7015H8.82145L7.38006 20.2601C7.39627 20.2603 7.41243 20.2608 7.42868 20.2608H15.623C15.6393 20.2608 15.6555 20.2603 15.6717 20.2601L14.2303 21.7015Z" fill="black"/>
</g>
<defs>
<clipPath id="clip0_2024_1166">
<rect width="23.0522" height="23.0522" fill="white"/>
</clipPath>
</defs>
</svg>
