<svg width="26" height="25" viewBox="0 0 26 25" fill="none" xmlns="http://www.w3.org/2000/svg">
<path d="M23.134 0C21.7687 0 20.6579 1.19682 20.6579 2.66803C20.6579 3.47745 20.9946 4.20327 21.5244 4.69298L16.9532 12.9337C16.6944 12.8346 16.4162 12.7802 16.1263 12.7802C15.8896 12.7802 15.6609 12.8169 15.444 12.884L11.5377 8.36995C11.6879 8.02604 11.7723 7.64246 11.7723 7.23786C11.7723 5.7667 10.6615 4.56982 9.29619 4.56982C7.93085 4.56982 6.82006 5.76665 6.82006 7.23786C6.82006 7.99402 7.11402 8.67721 7.58466 9.16314L2.82712 18.7362C2.71233 18.7186 2.59523 18.7089 2.47603 18.7089C1.11084 18.7089 0 19.9058 0 21.377C0 22.8481 1.11084 24.045 2.47613 24.045C3.84143 24.045 4.95227 22.8482 4.95227 21.377C4.95227 20.6404 4.67376 19.9727 4.22438 19.4894L8.99697 9.88568C9.09516 9.89845 9.1949 9.90589 9.29619 9.90589C9.71666 9.90589 10.1129 9.79206 10.46 9.592L14.1448 13.8501C13.8344 14.2959 13.6502 14.8493 13.6502 15.4482C13.6502 16.9194 14.761 18.1163 16.1263 18.1163C17.4916 18.1163 18.6024 16.9194 18.6024 15.4482C18.6024 14.906 18.4512 14.4012 18.1922 13.9798L22.9897 5.33127C23.0374 5.33423 23.0856 5.33618 23.1341 5.33618C24.4994 5.33618 25.6102 4.13935 25.6102 2.66814C25.6102 1.19693 24.4994 0 23.134 0ZM2.47613 22.3624C1.97183 22.3624 1.56162 21.9204 1.56162 21.377C1.56162 20.8336 1.97188 20.3916 2.47613 20.3916C2.98038 20.3916 3.39065 20.8336 3.39065 21.377C3.39065 21.9204 2.98043 22.3624 2.47613 22.3624ZM9.29619 8.22324C8.79189 8.22324 8.38168 7.78124 8.38168 7.23786C8.38168 6.69447 8.79194 6.25247 9.29619 6.25247C9.80044 6.25247 10.2107 6.69447 10.2107 7.23786C10.2107 7.78124 9.80044 8.22324 9.29619 8.22324ZM16.1263 16.4336C15.622 16.4336 15.2118 15.9915 15.2118 15.4482C15.2118 14.9048 15.6221 14.4628 16.1263 14.4628C16.6306 14.4628 17.0408 14.9048 17.0408 15.4482C17.0408 15.9915 16.6305 16.4336 16.1263 16.4336ZM23.134 3.65348C22.6297 3.65348 22.2195 3.21147 22.2195 2.66809C22.2195 2.1247 22.6298 1.6827 23.134 1.6827C23.6383 1.6827 24.0486 2.12465 24.0486 2.66803C24.0486 3.21142 23.6383 3.65348 23.134 3.65348Z" fill="#43A5C3"/>
</svg>
