<svg width="29" height="28" viewBox="0 0 29 28" fill="none" xmlns="http://www.w3.org/2000/svg">
<path d="M14.9016 18.0536C13.6272 18.0536 12.3532 17.7421 11.1915 17.119L2.81464 12.6257C1.59993 11.9742 0.847904 10.7143 0.851851 9.33766C0.855851 7.96104 1.61519 6.70553 2.83365 6.06098L11.2316 1.61891C13.5297 0.403398 16.2736 0.403398 18.5716 1.61891L26.9696 6.06098C28.1881 6.70547 28.9474 7.96098 28.9514 9.33766C28.9553 10.7143 28.2033 11.9742 26.9887 12.6257L18.6117 17.119C17.4503 17.7421 16.1758 18.0535 14.9016 18.0536ZM14.9016 2.90279C13.9937 2.90279 13.0857 3.12169 12.2581 3.55949L3.8602 8.00162C3.35282 8.26999 3.04886 8.7719 3.04723 9.34408C3.0456 9.91625 3.34655 10.4199 3.85241 10.6912L12.2293 15.1845C13.9028 16.0821 15.9008 16.0821 17.5742 15.1845L25.9512 10.6912C26.457 10.4199 26.758 9.9163 26.7563 9.34408C26.7547 8.77185 26.4507 8.26999 25.9434 8.00162L17.5452 3.55949C16.7175 3.12174 15.8096 2.90279 14.9016 2.90279ZM18.6117 27.0526L28.3726 21.8172C28.9069 21.5307 29.1077 20.8653 28.8211 20.3311C28.5346 19.7969 27.8693 19.5961 27.335 19.8826L17.5741 25.1181C15.9008 26.0157 13.9028 26.0157 12.225 25.1158L2.46411 19.9353C1.92851 19.6511 1.26413 19.8548 0.980013 20.3902C0.695794 20.9257 0.899484 21.5901 1.43497 21.8743L11.1916 27.0526C12.3533 27.6757 13.6273 27.9872 14.9017 27.9872C16.1758 27.9872 17.4503 27.6757 18.6117 27.0526ZM18.6117 22.1133L28.3726 16.8779C28.9069 16.5913 29.1077 15.926 28.8211 15.3918C28.5346 14.8575 27.8693 14.6568 27.335 14.9433L17.5741 20.1787C15.9008 21.0764 13.9028 21.0763 12.225 20.1764L2.46411 14.9959C1.92851 14.7117 1.26413 14.9154 0.980013 15.4509C0.695794 15.9864 0.899484 16.6508 1.43497 16.935L11.1916 22.1132C12.3533 22.7364 13.6273 23.0478 14.9017 23.0478C16.1758 23.0478 17.4503 22.7363 18.6117 22.1133Z" fill="#CB324C"/>
</svg>
