<svg width="67" height="67" viewBox="0 0 67 67" fill="none" xmlns="http://www.w3.org/2000/svg">
<g clip-path="url(#clip0_187_226)">
<path d="M3.34994 54.7167H8.93327V61.4167C8.93696 64.4987 11.4345 66.9963 14.5166 67H52.4833C55.5653 66.9963 58.0629 64.4987 58.0666 61.4167V54.7167H63.6499C65.5001 54.7167 66.9999 53.2168 66.9999 51.3667V40.2C66.9999 38.3498 65.5001 36.85 63.6499 36.85H58.0666V30.15C58.0629 27.0679 55.5653 24.5704 52.4833 24.5667V18.9833C52.4833 8.49913 43.9841 0 33.4999 0C23.0157 0 14.5166 8.49913 14.5166 18.9833V24.5667C11.4345 24.5704 8.93696 27.0679 8.93327 30.15V36.85H3.34994C1.49979 36.85 -6.10352e-05 38.3498 -6.10352e-05 40.2V51.3667C-6.10352e-05 53.2168 1.49979 54.7167 3.34994 54.7167ZM55.8333 61.4167C55.8333 63.2668 54.3334 64.7667 52.4833 64.7667H14.5166C12.6665 64.7667 11.1666 63.2668 11.1666 61.4167V54.7167H55.8333V61.4167ZM16.7499 18.9833C16.7499 9.73256 24.2492 2.23333 33.4999 2.23333C42.7507 2.23333 50.2499 9.73256 50.2499 18.9833V24.5667H45.7833V18.9833C45.7833 12.1994 40.2838 6.7 33.4999 6.7C26.716 6.7 21.2166 12.1994 21.2166 18.9833V24.5667H16.7499V18.9833ZM23.4499 24.5667V18.9833C23.4499 13.4329 27.9495 8.93333 33.4999 8.93333C39.0504 8.93333 43.5499 13.4329 43.5499 18.9833V24.5667H23.4499ZM11.1666 30.15C11.1666 28.2998 12.6665 26.8 14.5166 26.8H52.4833C54.3334 26.8 55.8333 28.2998 55.8333 30.15V36.85H11.1666V30.15ZM2.23327 40.2C2.23327 39.5833 2.73322 39.0833 3.34994 39.0833H63.6499C64.2667 39.0833 64.7666 39.5833 64.7666 40.2V51.3667C64.7666 51.9834 64.2667 52.4833 63.6499 52.4833H3.34994C2.73322 52.4833 2.23327 51.9834 2.23327 51.3667V40.2Z" fill="#43A5C3"/>
<path d="M4.65423 48.6364C4.81857 48.8828 5.07409 49.0539 5.36456 49.1119C5.65503 49.1699 5.95665 49.1101 6.20304 48.9457L7.81663 47.8693V49.1333C7.81663 49.75 8.31658 50.25 8.93329 50.25C9.55001 50.25 10.05 49.75 10.05 49.1333V47.8693L11.6635 48.9457C11.9955 49.1671 12.4203 49.1947 12.778 49.0179C13.1357 48.8412 13.372 48.487 13.3978 48.0888C13.4236 47.6907 13.235 47.309 12.903 47.0876L10.9433 45.7833L12.8997 44.4791C13.2316 44.2576 13.4202 43.876 13.3944 43.4778C13.3686 43.0796 13.1324 42.7255 12.7747 42.5487C12.417 42.372 11.9921 42.3995 11.6602 42.6209L10.05 43.6974V42.4333C10.05 41.8166 9.55001 41.3167 8.93329 41.3167C8.31658 41.3167 7.81663 41.8166 7.81663 42.4333V43.6974L6.20304 42.6209C5.68993 42.2786 4.99651 42.4171 4.65423 42.9302C4.31195 43.4433 4.45043 44.1368 4.96354 44.4791L6.92329 45.7833L4.96354 47.0876C4.71711 47.2519 4.54607 47.5075 4.48806 47.7979C4.43005 48.0884 4.48982 48.39 4.65423 48.6364Z" fill="#43A5C3"/>
<path d="M16.9376 48.6364C17.1019 48.8828 17.3574 49.0539 17.6479 49.1119C17.9384 49.1699 18.24 49.1101 18.4864 48.9457L20.1 47.8693V49.1333C20.1 49.75 20.5999 50.25 21.2166 50.25C21.8333 50.25 22.3333 49.75 22.3333 49.1333V47.8693L23.9469 48.9457C24.2788 49.1671 24.7036 49.1947 25.0613 49.0179C25.4191 48.8412 25.6553 48.487 25.6811 48.0888C25.7069 47.6907 25.5183 47.309 25.1864 47.0876L23.2266 45.7833L25.183 44.4791C25.5149 44.2576 25.7035 43.876 25.6777 43.4778C25.6519 43.0796 25.4157 42.7255 25.058 42.5487C24.7003 42.372 24.2754 42.3995 23.9435 42.6209L22.3333 43.6974V42.4333C22.3333 41.8166 21.8333 41.3167 21.2166 41.3167C20.5999 41.3167 20.1 41.8166 20.1 42.4333V43.6974L18.4864 42.6209C17.9733 42.2786 17.2798 42.4171 16.9376 42.9302C16.5953 43.4433 16.7338 44.1368 17.2469 44.4791L19.2066 45.7833L17.2502 47.0876C17.0032 47.2514 16.8315 47.5067 16.7729 47.7972C16.7142 48.0877 16.7735 48.3896 16.9376 48.6364Z" fill="#43A5C3"/>
<path d="M41.5042 48.6364C41.6685 48.8828 41.9241 49.0539 42.2145 49.1119C42.505 49.1699 42.8066 49.1101 43.053 48.9457L44.6666 47.8693V49.1333C44.6666 49.75 45.1666 50.25 45.7833 50.25C46.4 50.25 46.8999 49.75 46.8999 49.1333V47.8693L48.5135 48.9457C48.8454 49.1671 49.2703 49.1947 49.628 49.0179C49.9857 48.8412 50.2219 48.487 50.2477 48.0888C50.2735 47.6907 50.0849 47.309 49.753 47.0876L47.7933 45.7833L49.7497 44.4791C50.0816 44.2576 50.2702 43.876 50.2444 43.4778C50.2186 43.0796 49.9824 42.7255 49.6246 42.5487C49.2669 42.372 48.8421 42.3995 48.5102 42.6209L46.8999 43.6974V42.4333C46.8999 41.8166 46.4 41.3167 45.7833 41.3167C45.1666 41.3167 44.6666 41.8166 44.6666 42.4333V43.6974L43.053 42.6209C42.5399 42.2786 41.8465 42.4171 41.5042 42.9302C41.1619 43.4433 41.3004 44.1368 41.8135 44.4791L43.7733 45.7833L41.8169 47.0876C41.5699 47.2514 41.3982 47.5067 41.3395 47.7972C41.2809 48.0877 41.3401 48.3896 41.5042 48.6364Z" fill="#43A5C3"/>
<path d="M29.2209 48.6364C29.3852 48.8828 29.6407 49.0539 29.9312 49.1119C30.2217 49.1699 30.5233 49.1101 30.7697 48.9457L32.3833 47.8693V49.1333C32.3833 49.75 32.8832 50.25 33.4999 50.25C34.1167 50.25 34.6166 49.75 34.6166 49.1333V47.8693L36.2302 48.9457C36.5621 49.1671 36.987 49.1947 37.3447 49.0179C37.7024 48.8412 37.9386 48.487 37.9644 48.0888C37.9902 47.6907 37.8016 47.309 37.4697 47.0876L35.5099 45.7833L37.4663 44.4791C37.7983 44.2576 37.9869 43.876 37.9611 43.4778C37.9353 43.0796 37.699 42.7255 37.3413 42.5487C36.9836 42.372 36.5588 42.3995 36.2268 42.6209L34.6166 43.6974V42.4333C34.6166 41.8166 34.1167 41.3167 33.4999 41.3167C32.8832 41.3167 32.3833 41.8166 32.3833 42.4333V43.6974L30.7697 42.6209C30.2566 42.2786 29.5632 42.4171 29.2209 42.9302C28.8786 43.4433 29.0171 44.1368 29.5302 44.4791L31.4899 45.7833L29.5335 47.0876C29.2866 47.2514 29.1148 47.5067 29.0562 47.7972C28.9975 48.0877 29.0568 48.3896 29.2209 48.6364Z" fill="#43A5C3"/>
<path d="M17.8666 29.0334H14.5166C13.8999 29.0334 13.4 29.5334 13.4 30.1501V33.5001C13.4 34.1168 13.8999 34.6168 14.5166 34.6168C15.1333 34.6168 15.6333 34.1168 15.6333 33.5001V31.2668H17.8666C18.4833 31.2668 18.9833 30.7668 18.9833 30.1501C18.9833 29.5334 18.4833 29.0334 17.8666 29.0334Z" fill="#43A5C3"/>
<path d="M54.7166 50.2499H61.4166C62.0333 50.2499 62.5332 49.75 62.5332 49.1333C62.5332 48.5166 62.0333 48.0166 61.4166 48.0166H54.7166C54.0999 48.0166 53.5999 48.5166 53.5999 49.1333C53.5999 49.75 54.0999 50.2499 54.7166 50.2499Z" fill="#43A5C3"/>
</g>
<defs>
<clipPath id="clip0_187_226">
<rect width="67" height="67" fill="white"/>
</clipPath>
</defs>
</svg>
