<svg width="100" height="37" viewBox="0 0 100 37" fill="none" xmlns="http://www.w3.org/2000/svg">
<path d="M46.2666 24.3462V12.0685H52.5343V12.7897H47.0909V17.3059H52.0706V18.0099H47.0909V24.3462H46.2666ZM57.4751 24.3462V12.0685H58.2993V23.5906H63.9488V24.3462H57.4751ZM68.5388 22.7149C67.4055 21.49 66.8388 19.9846 66.8388 18.1988C66.8388 16.4129 67.4055 14.9133 68.5388 13.6998C69.6836 12.4749 71.126 11.8625 72.866 11.8625C74.6061 11.8625 76.0485 12.4749 77.1932 13.6998C78.338 14.9133 78.9104 16.4129 78.9104 18.1988C78.9104 19.9846 78.338 21.49 77.1932 22.7149C76.0485 23.9398 74.6061 24.5522 72.866 24.5522C71.126 24.5522 69.6836 23.9398 68.5388 22.7149ZM69.157 14.2322C68.2068 15.2968 67.7317 16.619 67.7317 18.1988C67.7317 19.7786 68.2068 21.1065 69.157 22.1826C70.1186 23.2587 71.3549 23.7967 72.866 23.7967C74.3886 23.7967 75.6249 23.2587 76.5751 22.1826C77.5367 21.1065 78.0175 19.7786 78.0175 18.1988C78.0175 16.619 77.5367 15.2968 76.5751 14.2322C75.6249 13.1561 74.3886 12.618 72.866 12.618C71.3435 12.618 70.1071 13.1561 69.157 14.2322ZM87.479 21.3755L91.0335 12.3089H91.5315L94.6395 21.4442C94.8799 22.1654 95.0402 22.6863 95.1203 23.0068C95.2119 22.629 95.3722 22.1139 95.6011 21.4614L98.7607 12.0685H99.6193L95.3436 24.4492H94.8628L91.686 15.3483C91.6402 15.1995 91.5887 15.0507 91.5315 14.9018C91.4857 14.753 91.4456 14.6214 91.4113 14.5069C91.3769 14.3924 91.3426 14.2951 91.3083 14.215L91.2396 14.0089C91.2281 13.9517 91.2224 13.9173 91.2224 13.9059C91.085 14.318 90.9076 14.7931 90.6901 15.3311L87.1012 24.4492H86.6204L82.3104 12.0685H83.2205L86.3628 21.3068C86.5117 21.7189 86.6319 22.091 86.7235 22.423C86.8265 22.755 86.8837 22.9381 86.8952 22.9725C86.9524 22.7092 87.147 22.1769 87.479 21.3755Z" fill="black"/>
<path d="M3.60388 27.904L9.3468 16.0991H29.1279L31.9993 10.6753H19.2373L13.5908 20.4554H23.704L20.5498 25.9186H11.2611L7.7219 32.0487" stroke="black"/>
<circle cx="18.8016" cy="18.8462" r="17.4019" stroke="black"/>
</svg>
