<svg width="78" height="90" viewBox="0 0 78 90" fill="none" xmlns="http://www.w3.org/2000/svg">
<path d="M76.5694 63.1096C77.2829 63.1096 77.861 62.5315 77.861 61.818V58.7396C77.861 54.0669 74.0596 50.2656 69.387 50.2656H63.6901V10.3885C63.6901 8.16458 61.8808 6.35533 59.6569 6.35533H58.0192V4.89842C58.0192 2.67449 56.2099 0.865234 53.986 0.865234H15.9702C15.6874 0.889344 15.4055 0.912076 15.0561 1.24444L0.573473 15.7029C0.203735 16.0722 0.0926596 16.6279 0.292425 17.1108C0.492189 17.5937 0.963359 17.9086 1.48602 17.9086H13.2291C15.4527 17.9086 17.2618 16.0996 17.2618 13.876V3.4484H53.986C54.7855 3.4484 55.436 4.09884 55.436 4.89842V50.2656H47.5632C42.8906 50.2656 39.0892 54.0669 39.0892 58.7396V70.9259H4.22728C3.4277 70.9259 2.77726 70.2755 2.77726 69.4759V22.652C2.77726 21.9385 2.19915 21.3604 1.48568 21.3604C0.772205 21.3604 0.194092 21.9385 0.194092 22.652V69.4759C0.194092 71.6998 2.00334 73.5091 4.22728 73.5091H5.86673V74.966C5.86673 77.1899 7.67529 78.9992 9.89819 78.9992H39.0894V80.5634C39.0894 85.236 42.8907 89.0374 47.5634 89.0374H69.3872C74.0598 89.0374 77.8611 85.236 77.8611 80.5634V67.8473C77.8611 67.1338 77.283 66.5557 76.5696 66.5557C75.8561 66.5557 75.278 67.1338 75.278 67.8473V80.5634C75.278 83.8114 72.6352 86.4542 69.3872 86.4542H47.5632C44.3151 86.4542 41.6724 83.8114 41.6724 80.5634V58.7396C41.6724 55.4915 44.3151 52.8487 47.5632 52.8487H69.387C72.6351 52.8487 75.2778 55.4915 75.2778 58.7396V61.818C75.2778 62.5315 75.8559 63.1096 76.5694 63.1096ZM14.6786 13.876C14.6786 14.6754 14.0285 15.3255 13.2291 15.3255H4.60786L14.6786 5.27126V13.876ZM9.89819 76.416C9.09947 76.416 8.4499 75.7656 8.4499 74.966V73.5091H39.0894V76.416H9.89819ZM58.0192 8.93849H59.6569C60.4565 8.93849 61.1069 9.58894 61.1069 10.3885V50.2657H58.0192V8.93849Z" fill="#ffffff"/>
<path d="M64.0047 61.8212L56.1075 69.7186L53.5656 67.1768C52.3993 66.0107 50.5015 66.0107 49.3351 67.1768L47.0791 69.4328C45.9129 70.5991 45.9129 72.4969 47.0791 73.6633L52.8589 79.4427C53.6821 80.266 54.7768 80.7195 55.9409 80.7195C57.1051 80.7195 58.1998 80.266 59.023 79.4429L70.3247 68.1412C71.4909 66.9748 71.4909 65.077 70.3247 63.9106L68.2353 61.8212C67.0689 60.655 65.1713 60.655 64.0047 61.8212ZM68.4981 66.3145L57.1964 77.6164C56.8611 77.9517 56.4152 78.1365 55.9409 78.1365C55.4667 78.1365 55.0208 77.9519 54.6855 77.6162L48.9058 71.8366C48.8018 71.7326 48.7863 71.6112 48.7863 71.548C48.7863 71.4848 48.8018 71.3634 48.9058 71.2594L51.1617 69.0034C51.2658 68.8994 51.3872 68.8839 51.4504 68.8839C51.5136 68.8839 51.635 68.8994 51.7392 69.0034L55.1942 72.4583C55.6985 72.9626 56.5163 72.9626 57.0207 72.4583L65.8314 63.6477C65.9354 63.5436 66.0568 63.5281 66.12 63.5281C66.1832 63.5281 66.3046 63.5436 66.4086 63.6477L68.4981 65.7371C68.6574 65.8964 68.6574 66.1554 68.4981 66.3145Z" fill="#ffffff"/>
<path d="M45.6494 34.7893C47.5919 34.7893 49.1723 33.2089 49.1723 31.2664V11.618C49.1723 9.6756 47.5919 8.09521 45.6494 8.09521H26.001C24.0584 8.09521 22.478 9.6756 22.478 11.618V31.2664C22.478 33.2089 24.0584 34.7893 26.001 34.7893H45.6494ZM31.0063 32.2062V28.982C31.0063 27.0577 32.5718 25.4922 34.4961 25.4922H37.1687C39.093 25.4922 40.6584 27.0577 40.6584 28.982V32.2062H31.0063ZM37.6288 21.1125C37.6288 22.1032 36.8229 22.9092 35.8321 22.9092C34.8414 22.9092 34.0355 22.1032 34.0355 21.1125V19.705C34.0355 18.7143 34.8414 17.9083 35.8321 17.9083C36.8229 17.9083 37.6288 18.7143 37.6288 19.705V21.1125ZM25.0612 31.2664V11.618C25.0612 11.0998 25.4828 10.6784 26.001 10.6784H45.6494C46.1676 10.6784 46.5891 11.0998 46.5891 11.618V31.2664C46.5891 31.7846 46.1676 32.2062 45.6494 32.2062H43.2414V28.982C43.2414 26.4836 41.7245 24.3335 39.564 23.4024C39.9747 22.7356 40.2122 21.9513 40.2122 21.1125V19.705C40.2122 17.2901 38.2474 15.3252 35.8323 15.3252C33.4172 15.3252 31.4525 17.2899 31.4525 19.705V21.1125C31.4525 21.9513 31.6899 22.7356 32.1007 23.4024C29.9399 24.3335 28.4231 26.4838 28.4231 28.982V32.2062H26.0011C25.4829 32.2062 25.0612 31.7846 25.0612 31.2664Z" fill="#ffffff"/>
<path d="M9.20093 43.5384C9.20093 44.2519 9.77904 44.83 10.4925 44.83H47.4947C48.2081 44.83 48.7862 44.2519 48.7862 43.5384C48.7862 42.8249 48.2081 42.2468 47.4947 42.2468H10.4925C9.77904 42.2468 9.20093 42.8249 9.20093 43.5384Z" fill="#ffffff"/>
<path d="M30.9925 48.7786H10.4925C9.77904 48.7786 9.20093 49.3567 9.20093 50.0701C9.20093 50.7836 9.77904 51.3617 10.4925 51.3617H30.9925C31.706 51.3617 32.2841 50.7836 32.2841 50.0701C32.2841 49.3567 31.7058 48.7786 30.9925 48.7786Z" fill="#ffffff"/>
<path d="M30.9925 55.3101H26.7659C26.0525 55.3101 25.4744 55.8882 25.4744 56.6016C25.4744 57.3151 26.0525 57.8932 26.7659 57.8932H30.9925C31.706 57.8932 32.2841 57.3151 32.2841 56.6016C32.2841 55.8882 31.7058 55.3101 30.9925 55.3101Z" fill="#ffffff"/>
<path d="M10.4925 57.8932H20.7425C21.456 57.8932 22.0341 57.3151 22.0341 56.6016C22.0341 55.8882 21.456 55.3101 20.7425 55.3101H10.4925C9.77904 55.3101 9.20093 55.8882 9.20093 56.6016C9.20093 57.3151 9.77904 57.8932 10.4925 57.8932Z" fill="#ffffff"/>
<path d="M10.4925 64.4247H30.9925C31.706 64.4247 32.2841 63.8466 32.2841 63.1331C32.2841 62.4197 31.706 61.8416 30.9925 61.8416H10.4925C9.77904 61.8416 9.20093 62.4197 9.20093 63.1331C9.20093 63.8466 9.77904 64.4247 10.4925 64.4247Z" fill="#ffffff"/>
<path d="M13.8238 28.3401L9.57926 32.5844C9.07468 33.0888 9.07468 33.9066 9.57909 34.4109C9.83138 34.6631 10.1619 34.7892 10.4925 34.7892C10.823 34.7892 11.1536 34.6631 11.4057 34.411L15.6502 30.1667C16.1548 29.6623 16.1548 28.8445 15.6504 28.3402C15.146 27.836 14.3282 27.8357 13.8238 28.3401Z" fill="#ffffff"/>
</svg>
